<svg xmlns="http://www.w3.org/2000/svg" viewBox="0 0 64 64">
  <defs>
    <linearGradient id="bg" x1="0%" y1="0%" x2="100%" y2="100%">
      <stop offset="0%" style="stop-color:#1a1a2e"/>
      <stop offset="100%" style="stop-color:#0f0f1a"/>
    </linearGradient>
    <linearGradient id="flame" x1="0%" y1="100%" x2="100%" y2="0%">
      <stop offset="0%" style="stop-color:#E65D24"/>
      <stop offset="100%" style="stop-color:#FF9A56"/>
    </linearGradient>
  </defs>

  <!-- Background circle -->
  <circle cx="32" cy="32" r="32" fill="url(#bg)"/>

  <!-- Flame / Forge icon -->
  <!-- Outer flame body -->
  <path d="M32 10 C22 18 16 26 20 36 C22 42 26 46 32 52 C38 46 42 42 44 36 C48 26 42 18 32 10Z"
        fill="url(#flame)" opacity="0.9"/>

  <!-- Inner core glow -->
  <path d="M32 22 C27 27 25 32 27 38 C28.5 42 30.5 44.5 32 47 C33.5 44.5 35.5 42 37 38 C39 32 37 27 32 22Z"
        fill="#FF6A20" opacity="0.7"/>

  <!-- White F letter -->
  <text x="26" y="38" font-family="Arial, sans-serif" font-size="20" font-weight="bold" fill="white" opacity="0.95">F</text>
</svg>
